<svg xmlns="http://www.w3.org/2000/svg" viewBox="0 0 64 64">
  <rect width="64" height="64" fill="#fff"/>
  <path d="M0 0h64v5H0zm0 10h64v5H0zm0 10h64v5H0zm0 10h64v5H0zm0 10h64v5H0zm0 10h64v5H0zm0 10h64v5H0z" fill="#b22234"/>
  <rect width="30" height="35" fill="#3c5aa6"/>
  <g fill="#fff">
    <circle cx="5" cy="5" r="1.1"/><circle cx="11" cy="5" r="1.1"/><circle cx="17" cy="5" r="1.1"/><circle cx="23" cy="5" r="1.1"/>
    <circle cx="8" cy="10" r="1.1"/><circle cx="14" cy="10" r="1.1"/><circle cx="20" cy="10" r="1.1"/><circle cx="26" cy="10" r="1.1"/>
    <circle cx="5" cy="15" r="1.1"/><circle cx="11" cy="15" r="1.1"/><circle cx="17" cy="15" r="1.1"/><circle cx="23" cy="15" r="1.1"/>
    <circle cx="8" cy="20" r="1.1"/><circle cx="14" cy="20" r="1.1"/><circle cx="20" cy="20" r="1.1"/><circle cx="26" cy="20" r="1.1"/>
    <circle cx="5" cy="25" r="1.1"/><circle cx="11" cy="25" r="1.1"/><circle cx="17" cy="25" r="1.1"/><circle cx="23" cy="25" r="1.1"/>
    <circle cx="8" cy="30" r="1.1"/><circle cx="14" cy="30" r="1.1"/><circle cx="20" cy="30" r="1.1"/><circle cx="26" cy="30" r="1.1"/>
  </g>
</svg>
