<svg xmlns="http://www.w3.org/2000/svg" viewBox="0 0 48 48" role="img" aria-label="Corn">
  <circle cx="24" cy="24" r="23" fill="#eef8df"/>
  <path d="M23.8 8.7c6.1 3.2 9.4 8.1 9.4 14.6 0 7.7-4.5 13.5-9.4 16-4.9-2.5-9.4-8.3-9.4-16 0-6.5 3.3-11.4 9.4-14.6Z" fill="#f3c83f"/>
  <path d="M17.6 31.8c-3.8-.6-6.2-3.2-7.2-7.7 4.4.3 7.5 2.3 9.3 6" fill="#75b843"/>
  <path d="M30 30.1c1.8-3.7 4.9-5.7 9.3-6-1 4.5-3.4 7.1-7.2 7.7" fill="#75b843"/>
  <path d="M20.2 15.6h7.2M19 21.4h9.6M19.5 27.2h8.6" fill="none" stroke="#ffe999" stroke-width="2.2" stroke-linecap="round"/>
</svg>
