<svg width="161" height="32" viewBox="0 0 161 32" fill="none" xmlns="http://www.w3.org/2000/svg">
<g clip-path="url(#clip0_1163_7524)">
<path d="M105.322 17.7987C106.15 16.9936 106.547 15.9358 106.531 14.657C106.5 11.9258 104.32 10.0786 101.138 10.0786C98.6089 10.0786 96.3181 11.1364 94.6795 13.0467C93.2 14.7833 92.3728 17.1199 92.4046 19.4406C92.4523 23.498 94.9022 25.8346 99.1021 25.8346C100.104 25.8346 102.634 25.7241 104.702 24.6663L104.797 24.619L104.416 21.1299L104.209 21.2246C102.936 21.8403 101.6 22.1403 100.12 22.1403C98.8794 22.1403 97.9248 21.7614 97.368 21.051C97.1294 20.7194 96.9703 20.1827 96.9385 19.788C101.122 19.8985 103.859 19.2354 105.322 17.7987ZM97.368 16.2989C97.7339 14.9096 98.8475 13.5677 100.629 13.5677C101.52 13.5677 102.093 13.9939 102.093 14.6728C102.093 14.9885 101.997 15.2411 101.775 15.4464C101.202 16.0463 99.8021 16.2989 97.368 16.2989Z" fill="#0A121C"/>
<path d="M94.5191 10.3943H88.4579L84.5921 14.8938C84.2103 15.3674 83.8603 15.8252 83.5263 16.2515L85.7535 3.71619L80.4559 5.62648L76.956 25.3136L76.9242 25.503H81.8877L82.7308 20.7983L83.9717 19.5511L86.4375 25.503H92.5146L87.917 16.5831L94.5191 10.3943Z" fill="#0A121C"/>
<path d="M21.1482 10.0627C19.3983 10.0627 17.7438 10.8521 16.5507 12.2572L16.7734 10.3943H12.7167L8.96228 31.5023L13.9735 29.6867L14.7689 25.2977C15.3098 25.5661 16.2961 25.8503 17.4893 25.8503C22.9936 25.8503 26.2231 20.7509 26.1595 15.8252C26.1276 12.3204 24.155 10.0627 21.1482 10.0627ZM17.3143 22.235C16.5666 22.235 15.9461 22.0297 15.4689 21.6035L15.9621 18.5091C16.4552 15.7463 17.8552 13.8833 19.4619 13.8833C21.1005 13.8833 21.2437 15.62 21.2437 16.141C21.2755 18.9669 19.5733 22.235 17.3143 22.235Z" fill="#0A121C"/>
<path d="M10.7126 14.1044L11.3649 10.3943H8.46949L8.56494 9.82597C8.69221 9.06817 9.20128 7.33153 11.0467 7.33153C11.3489 7.33153 11.6353 7.36311 11.9217 7.41047L12.6057 3.52673C12.0966 3.43201 11.5398 3.38464 10.9035 3.38464C10.124 3.38464 8.1195 3.52673 6.41728 4.90025C4.98551 6.00538 3.96736 7.85252 3.58556 9.96806L3.50601 10.4101H1.54926L0.897008 14.1044H2.85376L0.833374 25.5188H5.82867L7.84906 14.1044H10.7126Z" fill="#0A121C"/>
<path d="M65.7893 16.6462C66.1711 14.5149 65.8847 12.873 64.9302 11.7521C63.9916 10.6312 62.4007 10.0786 60.2053 10.0786C56.9759 10.0786 54.7169 11.089 54.1124 11.389L54.0169 11.4363L54.3828 14.7517L54.5896 14.6412C55.5759 14.0887 57.2623 13.5361 58.8213 13.5361C59.7917 13.5361 60.4599 13.7413 60.8099 14.1518C61.1121 14.4991 61.0962 14.9412 61.0485 15.2569L61.0326 15.3359C55.4646 15.3359 51.9011 17.4514 51.2488 21.1299C51.0261 22.3929 51.3124 23.6086 52.0442 24.4769C52.8078 25.3768 53.9692 25.8662 55.4169 25.8662C57.1509 25.8662 58.7577 25.2663 59.9349 24.1769L59.9508 25.5346H64.2143L65.7893 16.6462ZM60.3644 19.9458C60.3167 20.2142 60.2372 20.4668 60.1417 20.6879C59.6644 21.6351 58.6145 22.2982 57.5804 22.2982C57.0713 22.2982 56.6736 22.1561 56.435 21.8719C56.2123 21.6035 56.1327 21.2246 56.2282 20.7352C56.4827 19.2828 57.9622 18.5407 60.619 18.5407L60.3644 19.9458Z" fill="#0A121C"/>
<path d="M114.915 21.7455L114.74 21.7771C114.358 21.8403 113.944 21.8403 113.547 21.8403C112.799 21.8403 112.449 21.5087 112.449 20.7667C112.449 20.1984 112.576 19.3616 112.672 18.9196L113.594 14.0254H116.299L116.935 10.4101H114.247L114.978 6.3053L110.047 8.08929L109.617 10.4101H107.692L107.072 14.0254H108.965L107.915 19.7405C107.708 20.8772 107.629 21.6982 107.644 22.5191C107.676 24.6031 109.188 25.8503 111.717 25.8503C112.544 25.8503 113.61 25.7556 114.247 25.5503L114.915 21.7455Z" fill="#0A121C"/>
<path d="M123.824 16.2515C122.615 15.6831 122.074 15.2095 122.074 14.7043C122.058 14.0254 122.774 13.5676 123.856 13.5676C125.128 13.5676 126.146 13.9149 126.783 14.2149L126.942 14.2938L127.578 10.6785C126.703 10.2996 125.399 10.0627 123.983 10.0627C120.022 10.0627 117.301 12.2256 117.333 15.3042C117.349 16.9619 118.463 18.3196 120.642 19.3774C122.122 20.0878 122.424 20.5773 122.44 21.1456C122.456 21.8561 121.772 22.3139 120.722 22.3139C119.401 22.3139 117.826 21.7613 116.872 21.3035L116.713 21.2246L116.06 24.8715C117.079 25.4398 118.733 25.8029 120.356 25.8029C124.667 25.8029 127.324 23.7506 127.276 20.4352C127.26 18.2565 125.431 17.0566 123.824 16.2515Z" fill="#0A121C"/>
<path d="M49.7518 11.389C49.02 10.5207 47.9064 10.0786 46.5383 10.0786C45.4406 10.0786 44.4384 10.3154 43.4998 10.8206C42.7362 11.2311 42.0044 11.7995 41.368 12.4783C40.9067 10.9943 39.4908 10.0786 37.6295 10.0786C35.7523 10.0786 34.1296 10.8048 32.7933 12.2257L33.2546 9.65234L28.6889 11.31L26.1594 25.5346H26.1753H30.4388H30.9956L32.5547 16.7725C32.6024 16.4726 32.6978 16.0463 32.9206 15.6674C33.3342 14.9096 34.1614 14.0886 35.2432 14.0886C35.7205 14.0886 36.1023 14.2465 36.3568 14.5307C36.7704 15.0043 36.8659 15.8726 36.6591 17.0409L35.1478 25.5188H39.984L41.543 16.741C41.6066 16.4094 41.7339 15.9358 41.9248 15.6043C42.3066 14.878 43.118 14.0886 44.1997 14.0886C44.7088 14.0886 45.0906 14.2465 45.3452 14.5465C45.7747 15.0517 45.8701 15.9832 45.6315 17.2935L44.1679 25.5346H49.0041L50.5791 16.6936C50.9927 14.3413 50.7064 12.5257 49.7518 11.389Z" fill="#0A121C"/>
<path d="M78.5792 10.1259C78.2451 10.0627 78.0224 10.0627 77.577 10.0627C76.1611 10.0627 74.2998 10.9153 73.1067 12.7782L73.6635 9.63647L69.05 11.31L66.5205 25.5188H70.8476H71.484L72.8362 17.8776C72.8998 17.5145 72.9953 17.1671 73.1067 16.883C73.6475 15.4937 74.9361 14.6569 76.5429 14.6569C77.0361 14.6569 77.4179 14.7201 77.7361 14.7674L77.8951 14.799L78.7224 10.1575L78.5792 10.1259Z" fill="#0A121C"/>
<path d="M138.125 26.3082C138.475 26.0556 138.809 25.803 139.143 25.5661C139.413 25.3609 139.986 24.9346 140.018 24.9188C151.997 15.8568 154.304 9.09971 156.101 0.495483C150.708 13.8991 142.595 17.8302 138.252 20.6878C135.484 17.4987 134.482 13.0782 136.025 9.02077C137.186 5.94219 139.588 3.66878 142.515 2.48472C138.268 3.46355 134.609 6.40003 133.002 10.6627C130.823 16.4409 133.082 22.8191 138.093 26.3239C138.109 26.3239 138.125 26.3239 138.125 26.3082Z" fill="#0A121C"/>
<path d="M159.364 17.7355C157.693 22.1718 153.446 24.9346 148.784 25.1714C151.728 20.8614 158.521 13.1886 156.293 0.51123C155.593 11.0573 152.189 16.6619 144.06 24.5399C143.089 25.4872 142.055 26.4502 140.942 27.4606C140.846 27.5553 140.735 27.6501 140.639 27.7448C140.862 27.8395 141.101 27.9342 141.323 28.029C148.53 30.7128 156.484 27.3027 159.093 20.4036C159.682 18.8564 159.936 17.2776 159.92 15.7147C159.793 16.3777 159.602 17.0566 159.364 17.7355Z" fill="#0A121C"/>
</g>
<defs>
<clipPath id="clip0_1163_7524">
<rect width="160" height="30.991" fill="white" transform="translate(0.833374 0.495483)"/>
</clipPath>
</defs>
</svg>
