<svg width="161" height="32" viewBox="0 0 161 32" fill="none" xmlns="http://www.w3.org/2000/svg">
<g clip-path="url(#clip0_1163_7526)">
<path d="M104.656 17.7987C105.483 16.9936 105.881 15.9358 105.865 14.657C105.833 11.9258 103.653 10.0786 100.472 10.0786C97.9422 10.0786 95.6513 11.1364 94.0127 13.0467C92.5333 14.7833 91.706 17.1199 91.7378 19.4406C91.7855 23.498 94.2355 25.8346 98.4353 25.8346C99.4376 25.8346 101.967 25.7241 104.035 24.6663L104.131 24.619L103.749 21.1299L103.542 21.2246C102.269 21.8403 100.933 22.1403 99.4535 22.1403C98.2126 22.1403 97.2581 21.7614 96.7013 21.051C96.4627 20.7194 96.3036 20.1827 96.2718 19.788C100.456 19.8985 103.192 19.2354 104.656 17.7987ZM96.7013 16.2989C97.0672 14.9096 98.1808 13.5677 99.9626 13.5677C100.853 13.5677 101.426 13.9939 101.426 14.6728C101.426 14.9885 101.331 15.2411 101.108 15.4464C100.535 16.0463 99.1353 16.2989 96.7013 16.2989Z" fill="white"/>
<path d="M93.8524 10.3943H87.7912L83.9254 14.8938C83.5436 15.3674 83.1937 15.8252 82.8596 16.2515L85.0868 3.71619L79.7892 5.62648L76.2893 25.3136L76.2575 25.503H81.221L82.0641 20.7983L83.305 19.5511L85.7708 25.503H91.8479L87.2503 16.5831L93.8524 10.3943Z" fill="white"/>
<path d="M20.4815 10.0627C18.7316 10.0627 17.0771 10.8521 15.884 12.2572L16.1067 10.3943H12.05L8.29556 31.5023L13.3068 29.6867L14.1022 25.2977C14.6431 25.5661 15.6294 25.8503 16.8226 25.8503C22.3269 25.8503 25.5564 20.7509 25.4927 15.8252C25.4609 12.3204 23.4883 10.0627 20.4815 10.0627ZM16.6476 22.235C15.8999 22.235 15.2794 22.0297 14.8022 21.6035L15.2953 18.5091C15.7885 15.7463 17.1885 13.8833 18.7952 13.8833C20.4338 13.8833 20.577 15.62 20.577 16.141C20.6088 18.9669 18.9066 22.235 16.6476 22.235Z" fill="white"/>
<path d="M10.0459 14.1044L10.6982 10.3943H7.8028L7.89826 9.82597C8.02552 9.06817 8.5346 7.33153 10.38 7.33153C10.6823 7.33153 10.9686 7.36311 11.255 7.41047L11.939 3.52673C11.43 3.43201 10.8732 3.38464 10.2368 3.38464C9.4573 3.38464 7.45282 3.52673 5.7506 4.90025C4.31883 6.00538 3.30068 7.85252 2.91887 9.96806L2.83933 10.4101H0.882573L0.230321 14.1044H2.18708L0.166687 25.5188H5.16198L7.18237 14.1044H10.0459Z" fill="white"/>
<path d="M65.1225 16.6462C65.5043 14.5149 65.218 12.873 64.2634 11.7521C63.3248 10.6312 61.734 10.0786 59.5386 10.0786C56.3091 10.0786 54.0501 11.089 53.4456 11.389L53.3502 11.4363L53.7161 14.7517L53.9229 14.6412C54.9092 14.0887 56.5955 13.5361 58.1545 13.5361C59.125 13.5361 59.7931 13.7413 60.1431 14.1518C60.4454 14.4991 60.4295 14.9412 60.3817 15.2569L60.3658 15.3359C54.7978 15.3359 51.2343 17.4514 50.5821 21.1299C50.3593 22.3929 50.6457 23.6086 51.3775 24.4769C52.1411 25.3768 53.3024 25.8662 54.7501 25.8662C56.4841 25.8662 58.0909 25.2663 59.2681 24.1769L59.2841 25.5346H63.5476L65.1225 16.6462ZM59.6977 19.9458C59.6499 20.2142 59.5704 20.4668 59.475 20.6879C58.9977 21.6351 57.9477 22.2982 56.9137 22.2982C56.4046 22.2982 56.0069 22.1561 55.7683 21.8719C55.5455 21.6035 55.466 21.2246 55.5614 20.7352C55.816 19.2828 57.2955 18.5407 59.9522 18.5407L59.6977 19.9458Z" fill="white"/>
<path d="M114.248 21.7455L114.073 21.7771C113.691 21.8403 113.278 21.8403 112.88 21.8403C112.132 21.8403 111.782 21.5087 111.782 20.7667C111.782 20.1984 111.909 19.3616 112.005 18.9196L112.928 14.0254H115.632L116.268 10.4101H113.58L114.312 6.3053L109.38 8.08929L108.95 10.4101H107.025L106.405 14.0254H108.298L107.248 19.7405C107.041 20.8772 106.962 21.6982 106.978 22.5191C107.01 24.6031 108.521 25.8503 111.05 25.8503C111.878 25.8503 112.943 25.7556 113.58 25.5503L114.248 21.7455Z" fill="white"/>
<path d="M123.157 16.2515C121.948 15.6831 121.407 15.2095 121.407 14.7043C121.391 14.0254 122.107 13.5676 123.189 13.5676C124.462 13.5676 125.48 13.9149 126.116 14.2149L126.275 14.2938L126.912 10.6785C126.037 10.2996 124.732 10.0627 123.316 10.0627C119.355 10.0627 116.635 12.2256 116.666 15.3042C116.682 16.9619 117.796 18.3196 119.975 19.3774C121.455 20.0878 121.757 20.5773 121.773 21.1456C121.789 21.8561 121.105 22.3139 120.055 22.3139C118.735 22.3139 117.16 21.7613 116.205 21.3035L116.046 21.2246L115.394 24.8715C116.412 25.4398 118.066 25.8029 119.689 25.8029C124 25.8029 126.657 23.7506 126.609 20.4352C126.593 18.2565 124.764 17.0566 123.157 16.2515Z" fill="white"/>
<path d="M49.0852 11.389C48.3534 10.5207 47.2398 10.0786 45.8717 10.0786C44.774 10.0786 43.7717 10.3154 42.8331 10.8206C42.0695 11.2311 41.3377 11.7995 40.7014 12.4783C40.24 10.9943 38.8242 10.0786 36.9628 10.0786C35.0856 10.0786 33.463 10.8048 32.1266 12.2257L32.588 9.65234L28.0222 11.31L25.4928 25.5346H25.5087H29.7722H30.329L31.888 16.7725C31.9357 16.4726 32.0312 16.0463 32.2539 15.6674C32.6675 14.9096 33.4948 14.0886 34.5766 14.0886C35.0538 14.0886 35.4356 14.2465 35.6902 14.5307C36.1038 15.0043 36.1992 15.8726 35.9924 17.0409L34.4811 25.5188H39.3173L40.8764 16.741C40.94 16.4094 41.0673 15.9358 41.2582 15.6043C41.64 14.878 42.4513 14.0886 43.5331 14.0886C44.0422 14.0886 44.424 14.2465 44.6785 14.5465C45.108 15.0517 45.2035 15.9832 44.9649 17.2935L43.5013 25.5346H48.3375L49.9124 16.6936C50.3261 14.3413 50.0397 12.5257 49.0852 11.389Z" fill="white"/>
<path d="M77.9125 10.1259C77.5784 10.0627 77.3557 10.0627 76.9103 10.0627C75.4944 10.0627 73.6331 10.9153 72.4399 12.7782L72.9967 9.63647L68.3833 11.31L65.8538 25.5188H70.1809H70.8173L72.1695 17.8776C72.2331 17.5145 72.3286 17.1671 72.4399 16.883C72.9808 15.4937 74.2694 14.6569 75.8762 14.6569C76.3694 14.6569 76.7512 14.7201 77.0693 14.7674L77.2284 14.799L78.0557 10.1575L77.9125 10.1259Z" fill="white"/>
<path d="M137.458 26.3082C137.808 26.0556 138.142 25.803 138.476 25.5661C138.747 25.3609 139.319 24.9346 139.351 24.9188C151.33 15.8568 153.637 9.09971 155.435 0.495483C150.042 13.8991 141.928 17.8302 137.585 20.6878C134.817 17.4987 133.815 13.0782 135.358 9.02077C136.519 5.94219 138.922 3.66878 141.849 2.48472C137.601 3.46355 133.942 6.40003 132.336 10.6627C130.156 16.4409 132.415 22.8191 137.426 26.3239C137.442 26.3239 137.458 26.3239 137.458 26.3082Z" fill="white"/>
<path d="M158.697 17.7355C157.027 22.1718 152.779 24.9346 148.118 25.1714C151.061 20.8614 157.854 13.1886 155.627 0.51123C154.927 11.0573 151.522 16.6619 143.393 24.5399C142.423 25.4872 141.388 26.4502 140.275 27.4606C140.179 27.5553 140.068 27.6501 139.973 27.7448C140.195 27.8395 140.434 27.9342 140.657 28.029C147.863 30.7128 155.818 27.3027 158.427 20.4036C159.015 18.8564 159.27 17.2776 159.254 15.7147C159.127 16.3777 158.936 17.0566 158.697 17.7355Z" fill="white"/>
</g>
<defs>
<clipPath id="clip0_1163_7526">
<rect width="160" height="30.991" fill="white" transform="translate(0.166687 0.495483)"/>
</clipPath>
</defs>
</svg>
