<svg width="20" height="20" viewBox="0 0 20 20" fill="none" xmlns="http://www.w3.org/2000/svg">
<g clip-path="url(#clip0_7789_3469)">
<path d="M17.3088 4.47094C17.1388 4.03344 16.9353 3.72094 16.6078 3.39313C16.2797 3.06469 15.9675 2.86188 15.5297 2.69187C15.1994 2.56344 14.7028 2.41062 13.7887 2.36906C12.8003 2.32406 12.5037 2.31438 10.0006 2.31438C7.4975 2.31438 7.20094 2.32406 6.2125 2.36906C5.29812 2.41031 4.80219 2.56344 4.47156 2.69187C4.03406 2.86219 3.72188 3.065 3.39375 3.39313C3.06594 3.72094 2.8625 4.03344 2.6925 4.47094C2.56406 4.80125 2.41156 5.2975 2.36969 6.21156C2.32469 7.20031 2.315 7.49687 2.315 10C2.315 12.5031 2.32437 12.7997 2.36969 13.7881C2.41156 14.7025 2.56406 15.1984 2.6925 15.5291C2.8625 15.9666 3.06594 16.2791 3.39375 16.6069C3.72188 16.9347 4.03406 17.1381 4.47156 17.3081C4.80219 17.4363 5.29844 17.5891 6.2125 17.6309C7.20094 17.6759 7.4975 17.6856 10.0006 17.6856C12.5037 17.6856 12.8006 17.6759 13.7887 17.6309C14.7028 17.5891 15.1994 17.4363 15.5297 17.3081C15.9675 17.1381 16.2797 16.9347 16.6078 16.6069C16.9356 16.2787 17.1388 15.9666 17.3088 15.5291C17.4372 15.1984 17.59 14.7025 17.6316 13.7881C17.6769 12.7997 17.6863 12.5031 17.6863 10C17.6863 7.49687 17.6769 7.20031 17.6316 6.21156C17.59 5.2975 17.4372 4.80125 17.3088 4.47094ZM10.0003 14.8141C7.34156 14.8141 5.18625 12.6584 5.18625 10C5.18625 7.34156 7.34188 5.18594 10.0003 5.18594C12.6587 5.18594 14.8144 7.34125 14.8144 10C14.8144 12.6588 12.6591 14.8141 10.0003 14.8141ZM15.0047 6.12031C14.3834 6.12031 13.8797 5.61656 13.8797 4.99531C13.8797 4.37406 14.3831 3.87063 15.0047 3.87063C15.6263 3.87063 16.1297 4.37406 16.1297 4.99531C16.1297 5.61656 15.6256 6.12031 15.0047 6.12031ZM10.0003 6.875C8.27469 6.875 6.87562 8.27406 6.87562 10.0003C6.87562 11.7266 8.27469 13.1253 10.0003 13.1253C11.7259 13.1253 13.1253 11.7259 13.1253 10.0003C13.1253 8.27469 11.7262 6.875 10.0003 6.875ZM19.3188 13.8653C19.2731 14.8631 19.1147 15.5447 18.8831 16.1409C18.6434 16.7575 18.3228 17.28 17.8016 17.8016C17.28 18.3225 16.7578 18.6431 16.1409 18.8828C15.5447 19.1144 14.8631 19.2728 13.8653 19.3188C12.8656 19.3641 12.5463 19.3753 10 19.3753C7.45375 19.3753 7.13469 19.3644 6.13469 19.3188C5.13687 19.2731 4.45531 19.1147 3.85906 18.8828C3.2425 18.6431 2.71969 18.3228 2.19844 17.8016C1.67719 17.28 1.35656 16.7575 1.11719 16.1409C0.885625 15.5447 0.727188 14.8631 0.681563 13.8653C0.635938 12.8653 0.625 12.5459 0.625 10C0.625 7.45406 0.635938 7.13438 0.681563 6.13469C0.727188 5.13688 0.885625 4.45531 1.11719 3.85906C1.35688 3.24281 1.67719 2.71937 2.19844 2.19844C2.71969 1.67719 3.2425 1.35688 3.85906 1.11719C4.45531 0.885313 5.13687 0.726875 6.13469 0.681562C7.13469 0.635937 7.45406 0.625 10 0.625C12.5459 0.625 12.8656 0.635625 13.8653 0.681562C14.8631 0.726875 15.5447 0.885313 16.1409 1.11719C16.7578 1.35688 17.28 1.6775 17.8016 2.19844C18.3228 2.71937 18.6431 3.24281 18.8831 3.85906C19.1147 4.45531 19.2731 5.13688 19.3188 6.13469C19.3644 7.13438 19.375 7.45375 19.375 10C19.375 12.5463 19.3644 12.8653 19.3188 13.8653Z" fill="#0A121C"/>
</g>
<defs>
<clipPath id="clip0_7789_3469">
<rect width="20" height="20" fill="white"/>
</clipPath>
</defs>
</svg>
