<svg width="20" height="20" viewBox="0 0 20 20" fill="none" xmlns="http://www.w3.org/2000/svg">
<g clip-path="url(#clip0_7789_3473)">
<path d="M4.91622 6.97607H0.992188V19.0623H4.91622V6.97607Z" fill="#0A121C"/>
<path d="M2.95667 0.9375C1.69166 0.9375 0.865274 1.84383 0.891219 3.05238C0.865274 4.20659 1.69166 5.14027 2.93107 5.14027C4.22202 5.14027 5.04806 4.20659 5.04806 3.05238C5.02212 1.84383 4.22167 0.9375 2.95632 0.9375H2.95667Z" fill="#0A121C"/>
<path d="M14.6312 6.5625C12.9366 6.5625 11.7733 7.38161 11.1245 8.12243V6.84912H7.23438V19.0621H11.1245V12.2502C11.1245 11.8846 11.1756 11.4935 11.2781 11.2586C11.5335 10.528 12.1737 9.772 13.2487 9.772C14.6562 9.772 15.2193 10.894 15.2193 12.5376V19.0625H19.1094V12.0416C19.1094 8.2847 17.1899 6.56285 14.6309 6.56285L14.6312 6.5625Z" fill="#0A121C"/>
</g>
<defs>
<clipPath id="clip0_7789_3473">
<rect width="20" height="20" fill="white"/>
</clipPath>
</defs>
</svg>
