<svg width="20" height="20" viewBox="0 0 20 20" fill="none" xmlns="http://www.w3.org/2000/svg">
<g clip-path="url(#clip0_6192_39085)">
<path d="M19.204 9.49875C19.1172 7.12532 18.1172 4.87719 16.4122 3.22344C14.7072 1.57 12.4297 0.639065 10.0547 0.625003H10.0097C8.41028 0.623753 6.8381 1.03907 5.4481 1.82969C4.05778 2.62063 2.89747 3.75969 2.08122 5.135C1.26497 6.51031 0.820597 8.07438 0.792472 9.67344C0.764035 11.2725 1.15247 12.8516 1.91966 14.255L1.10528 19.1291C1.10403 19.1391 1.10466 19.1491 1.10778 19.1588C1.1106 19.1684 1.1156 19.1772 1.12216 19.185C1.12872 19.1928 1.13685 19.1988 1.14622 19.2028C1.15528 19.2069 1.16528 19.2091 1.17528 19.2094H1.18935L6.00997 18.1372C7.2556 18.7353 8.61966 19.0456 10.0012 19.045H10.2647C11.48 19.0103 12.6765 18.7353 13.785 18.2356C14.8934 17.7359 15.8922 17.0219 16.7231 16.1344C17.5543 15.2469 18.2012 14.2034 18.6272 13.0647C19.0528 11.9256 19.249 10.7138 19.204 9.49875ZM10.2193 17.4431H10.0018C8.7806 17.4447 7.57716 17.1525 6.49247 16.5913L6.24591 16.4622L2.97653 17.2347L3.57997 13.9272L3.43997 13.69C2.77091 12.5491 2.41028 11.2534 2.39403 9.93094C2.37778 8.60844 2.70653 7.30438 3.34747 6.14719C3.98841 4.99032 4.91997 4.02 6.04997 3.3325C7.17997 2.645 8.46966 2.26344 9.79185 2.22594H10.0131C12.0093 2.23188 13.9234 3.02188 15.3428 4.42532C16.7622 5.82907 17.5734 7.73407 17.6015 9.73C17.6297 11.7259 16.8725 13.6534 15.4934 15.0966C14.114 16.5397 12.2231 17.3834 10.2278 17.4456L10.2193 17.4431Z" fill="#0A121C"/>
<path d="M6.79749 5.38887C6.68374 5.39105 6.57155 5.41605 6.46749 5.46262C6.36343 5.50887 6.26999 5.57574 6.19218 5.65887C5.9728 5.88387 5.35905 6.42574 5.32343 7.56355C5.2878 8.70137 6.0828 9.82668 6.19405 9.98481C6.3053 10.1426 7.71374 12.6001 10.0341 13.597C11.3978 14.1845 11.9956 14.2854 12.3831 14.2854C12.5428 14.2854 12.6634 14.2686 12.7894 14.2611C13.2144 14.2348 14.1737 13.7436 14.3828 13.2092C14.5922 12.6748 14.6059 12.2079 14.5509 12.1145C14.4959 12.0211 14.3444 11.9539 14.1166 11.8342C13.8887 11.7145 12.7706 11.1167 12.5603 11.0326C12.4825 10.9964 12.3984 10.9745 12.3128 10.9682C12.2569 10.9711 12.2028 10.9876 12.1547 11.0164C12.1066 11.0451 12.0662 11.0848 12.0372 11.1326C11.8503 11.3651 11.4216 11.8704 11.2778 12.0164C11.2462 12.0526 11.2078 12.0817 11.1644 12.102C11.1209 12.1223 11.0737 12.1332 11.0256 12.1339C10.9372 12.1301 10.8509 12.1067 10.7725 12.0657C10.0953 11.7782 9.4778 11.3664 8.95186 10.8514C8.46061 10.3673 8.04374 9.81293 7.71499 9.20637C7.58811 8.97105 7.71499 8.84949 7.83093 8.73949C7.94686 8.62918 8.07093 8.47699 8.19061 8.34512C8.28874 8.23262 8.37061 8.10699 8.43343 7.97137C8.46593 7.90855 8.48249 7.83856 8.48124 7.76793C8.47999 7.69699 8.46155 7.62793 8.42686 7.56606C8.37186 7.44824 7.95999 6.29106 7.76655 5.82668C7.60968 5.42981 7.4228 5.41668 7.25936 5.40449C7.12499 5.39512 6.97061 5.39043 6.81655 5.38574H6.79686" fill="#0A121C"/>
</g>
<defs>
<clipPath id="clip0_6192_39085">
<rect width="20" height="20" fill="white"/>
</clipPath>
</defs>
</svg>
