<svg width="20" height="20" viewBox="0 0 20 20" fill="none" xmlns="http://www.w3.org/2000/svg">
<g clip-path="url(#clip0_7789_3480)">
<path d="M19.8817 5.05742C19.6442 4.17379 18.9453 3.47766 18.0582 3.24169C16.4497 2.8125 9.99983 2.8125 9.99983 2.8125C9.99983 2.8125 3.55029 2.8125 1.94181 3.24169C1.05438 3.47766 0.355457 4.17379 0.118286 5.05742C-0.3125 6.65871 -0.3125 10 -0.3125 10C-0.3125 10 -0.3125 13.3416 0.118286 14.9429C0.355797 15.8265 1.05438 16.5223 1.94181 16.7586C3.55029 17.1875 9.99983 17.1875 9.99983 17.1875C9.99983 17.1875 16.4494 17.1875 18.0582 16.7586C18.9453 16.5223 19.6442 15.8265 19.8817 14.9429C20.3125 13.3416 20.3125 10 20.3125 10C20.3125 10 20.3125 6.65871 19.8817 5.05742ZM7.89048 13.034V6.96638L13.2811 10L7.89048 13.034Z" fill="#0A121C"/>
</g>
<defs>
<clipPath id="clip0_7789_3480">
<rect width="20" height="20" fill="white"/>
</clipPath>
</defs>
</svg>
